<svg xmlns="http://www.w3.org/2000/svg" width="1280" height="640" viewBox="0 0 1280 640" font-family="Helvetica, Arial, sans-serif">
  <defs>
    <linearGradient id="sbg" x1="0" y1="0" x2="1" y2="1">
      <stop offset="0" stop-color="#0b1119"/>
      <stop offset="1" stop-color="#070b11"/>
    </linearGradient>
    <radialGradient id="g1" cx="0.15" cy="0.0" r="0.6">
      <stop offset="0" stop-color="#fc6719" stop-opacity="0.22"/>
      <stop offset="1" stop-color="#fc6719" stop-opacity="0"/>
    </radialGradient>
    <radialGradient id="g2" cx="0.95" cy="0.1" r="0.6">
      <stop offset="0" stop-color="#19b6ff" stop-opacity="0.20"/>
      <stop offset="1" stop-color="#19b6ff" stop-opacity="0"/>
    </radialGradient>
    <linearGradient id="lbg" x1="0" y1="0" x2="1" y2="1">
      <stop offset="0" stop-color="#fc6719"/>
      <stop offset="0.55" stop-color="#ff812e"/>
      <stop offset="1" stop-color="#19b6ff"/>
    </linearGradient>
  </defs>

  <rect width="1280" height="640" fill="url(#sbg)"/>
  <rect width="1280" height="640" fill="url(#g1)"/>
  <rect width="1280" height="640" fill="url(#g2)"/>

  <!-- logo: Bluetooth (center) + road bike (top-left) + keyboard (bottom-right) -->
  <svg x="96" y="160" width="320" height="320" viewBox="0 0 512 512">
    <rect width="512" height="512" rx="116" fill="url(#lbg)"/>
    <svg x="166" y="120" width="180" height="232" viewBox="4 2 16 20">
      <path d="M7 8l10 8l-5 4l0 -16l5 4l-10 8" fill="none" stroke="#0a0f17" stroke-width="1.7" stroke-linecap="round" stroke-linejoin="round"/>
    </svg>
    <g transform="translate(-38,-66) scale(0.52)" fill="none" stroke="#0a0f17" stroke-width="12" stroke-linecap="round" stroke-linejoin="round">
      <circle cx="158" cy="318" r="60"/>
      <circle cx="350" cy="318" r="60"/>
      <path d="M250 320 L158 318"/>
      <path d="M250 320 L214 210"/>
      <path d="M214 210 L158 318"/>
      <path d="M214 210 L320 216"/>
      <path d="M250 320 L320 248"/>
      <path d="M320 216 L320 248 L350 318"/>
      <path d="M196 206 L232 204"/>
      <path d="M320 216 L348 212 q14 0 13 17"/>
      <path d="M250 320 L264 346"/>
      <circle cx="158" cy="318" r="9" fill="#0a0f17" stroke="none"/>
      <circle cx="350" cy="318" r="9" fill="#0a0f17" stroke="none"/>
    </g>
    <g>
      <rect x="312" y="374" width="164" height="84" rx="14" fill="none" stroke="#0a0f17" stroke-width="7"/>
      <g fill="#0a0f17">
        <rect x="326" y="390" width="16" height="13" rx="3"/>
        <rect x="350" y="390" width="16" height="13" rx="3"/>
        <rect x="374" y="390" width="16" height="13" rx="3"/>
        <rect x="398" y="390" width="16" height="13" rx="3"/>
        <rect x="422" y="390" width="16" height="13" rx="3"/>
        <rect x="446" y="390" width="16" height="13" rx="3"/>
        <rect x="326" y="409" width="16" height="13" rx="3"/>
        <rect x="350" y="409" width="16" height="13" rx="3"/>
        <rect x="374" y="409" width="16" height="13" rx="3"/>
        <rect x="398" y="409" width="16" height="13" rx="3"/>
        <rect x="422" y="409" width="16" height="13" rx="3"/>
        <rect x="446" y="409" width="16" height="13" rx="3"/>
        <rect x="356" y="430" width="76" height="12" rx="4"/>
      </g>
    </g>
  </svg>

  <!-- text block -->
  <text x="470" y="286" font-size="76" font-weight="800" fill="#eef3fa">RideToWooshHID</text>
  <text x="472" y="338" font-size="30" fill="#aab6c6">Zwift Ride controller &#8594; freely configurable BLE keyboard</text>
  <rect x="472" y="372" width="640" height="2" fill="#1f2b3b"/>
  <text x="472" y="424" font-size="27" font-weight="700" fill="#ff812e">ESP32-S3 &#183; BLE-HID &#183; MyWhoosh &#183; Zwift &#183; Web UI &#183; EN/DE</text>
  <text x="472" y="470" font-size="22" fill="#8595a8">No subscription &#183; no PC helper &#183; open source (GPL-3.0)</text>
</svg>
